#!OML:ASF E:\Steps\Project 1\Capture day 1\Session 2\Subject.ASF
:FULLY-SPECIFIED
:DEGREES
320
root 3.62674 17.1409 8.60106 -152.729 -7.41513 177.247
lowerback -23.085 -3.19952 -5.15494
upperback 0.930832 -2.97725 -0.078866
thorax 14.3647 -1.80047 1.79945
lowerneck -1.63083 -0.722144 -0.400366
upperneck 18.7156 -2.53053 1.42736
head 5.94371 -1.65248 0.325215
rclavicle 6.65929e-015 1.15295e-014
rhumerus -40.5605 -14.2286 -77.8007
rradius 31.4308
rwrist -1.06883
rhand -3.603 -52.5703
rfingers 7.12502
rthumb 22.1352 -81.3232
lclavicle 6.65929e-015 1.15295e-014
lhumerus -31.1147 2.20145 76.7431
lradius 31.8685
lwrist -1.03372
lhand -21.4648 -11.7963
lfingers 7.12502
lthumb 4.92554 18.1265
rfemur -32.1129 8.38257 18.3598
rtibia 19.3065
rfoot -23.1349 -5.44522
rtoes -14.6036
lfemur -34.0898 -13.0811 -20.6495
ltibia 19.1789
lfoot -8.05981 -3.21757
ltoes -14.6684
321
root 3.62328 17.145 8.58632 -152.796 -7.43942 177.204
lowerback -23.1376 -3.12436 -5.21932
upperback 0.898779 -2.84859 -0.185806
thorax 14.3434 -1.74337 1.75804
lowerneck -1.72534 -0.832895 -0.351055
upperneck 18.5284 -2.67897 1.61481
head 5.90458 -1.69622 0.369052
rclavicle -5.06901e-015 0
rhumerus -40.5314 -14.4479 -77.7741
rradius 31.4141
rwrist -0.854678
rhand -3.88836 -53.0759
rfingers 7.12502
rthumb 21.8612 -81.861
lclavicle -5.06901e-015 0
lhumerus -31.1655 1.61671 76.9862
lradius 32.8721
lwrist -0.472963
lhand -21.9253 -11.5534
lfingers 7.12502
lthumb 4.48089 18.3792
rfemur -31.8428 8.4053 18.3099
rtibia 19.0807
rfoot -23.1835 -5.43706
rtoes -14.258
lfemur -33.6254 -12.8397 -20.8215
ltibia 18.5765
lfoot -7.84255 -3.43035
ltoes -14.5337
322
root 3.61761 17.1486 8.5698 -152.859 -7.47536 177.216
lowerback -23.1544 -3.07319 -5.23419
upperback 0.796714 -2.78362 -0.208466
thorax 14.2256 -1.71428 1.76562
lowerneck -1.68376 -0.893425 -0.489831
upperneck 18.2838 -2.7466 1.80979
head 5.8253 -1.71594 0.452873
rclavicle -2.50469e-014 5.56597e-015
rhumerus -40.5683 -14.4744 -77.6783
rradius 31.4481
rwrist -0.846749
rhand -4.18524 -53.5443
rfingers 7.12502
rthumb 21.5761 -82.3624
lclavicle -2.50469e-014 5.56597e-015
lhumerus -31.4119 1.09819 77.2923
lradius 33.8316
lwrist 0.141617
lhand -22.0548 -11.623
lfingers 7.12502
lthumb 4.35583 18.3122
rfemur -31.505 8.43169 18.3274
rtibia 18.7433
rfoot -23.1238 -5.50784
rtoes -14.2444
lfemur -33.1105 -12.4913 -20.9859
ltibia 17.8736
lfoot -7.61871 -3.67869
ltoes -15.0979
323
root 3.61087 17.1509 8.55447 -152.9 -7.52481 177.217
lowerback -23.2227 -3.00875 -5.22777
upperback 0.718211 -2.70266 -0.223546
thorax 14.1635 -1.67713 1.77289
lowerneck -1.6116 -0.963159 -0.668995
upperneck 18.0619 -2.83044 2.00892
head 5.74901 -1.74796 0.543744
rclavicle -2.68359e-015 -1.15295e-014
rhumerus -40.5662 -14.5488 -77.5231
rradius 31.542
rwrist -0.872518
rhand -4.32609 -53.655
rfingers 7.12502
rthumb 21.4408 -82.4886
lclavicle -2.68359e-015 -1.15295e-014
lhumerus -31.5159 0.575219 77.6513
lradius 34.6802
lwrist 0.651859
lhand -22.0802 -11.3023
lfingers 7.12502
lthumb 4.33133 18.6334
rfemur -31.1628 8.42715 18.3373
rtibia 18.3494
rfoot -23.0256 -5.60517
rtoes -14.5125
lfemur -32.7115 -12.2773 -21.1085
ltibia 17.3126
lfoot -7.4513 -3.9226
ltoes -14.6645
324
root 3.60678 17.1551 8.54553 -152.981 -7.67449 177.105
lowerback -23.2088 -3.01093 -5.34825
upperback 0.678585 -2.67375 -0.259099
thorax 14.1105 -1.6716 1.81244
lowerneck -1.55016 -1.02764 -0.782799
upperneck 17.7897 -2.88928 2.13371
head 5.65706 -1.76577 0.602096
rclavicle 5.46658e-015 1.19271e-014
rhumerus -40.5357 -14.6176 -77.4156
rradius 31.7661
rwrist -1.04123
rhand -4.22213 -53.9901
rfingers 7.12502
rthumb 21.5406 -82.8122
lclavicle 5.46658e-015 1.19271e-014
lhumerus -31.5305 0.197097 77.9487
lradius 35.403
lwrist 0.868613
lhand -22.1261 -11.0971
lfingers 7.12502
lthumb 4.28702 18.8395
rfemur -30.7199 8.37276 18.2263
rtibia 17.805
rfoot -22.8465 -5.71833
rtoes -14.1358
lfemur -32.3581 -12.269 -21.2685
ltibia 16.8886
lfoot -7.27524 -4.1526
ltoes -14.0962
325
root 3.60489 17.1614 8.54377 -152.952 -7.94176 177.003
lowerback -23.2176 -3.0569 -5.48352
upperback 0.588375 -2.70569 -0.275342
thorax 14.0172 -1.69575 1.86114
lowerneck -1.49432 -1.03051 -0.746222
upperneck 17.5163 -2.83846 2.05839
head 5.5597 -1.73283 0.578559
rclavicle -9.93923e-015 -2.94201e-014
rhumerus -40.5383 -14.7441 -77.3128
rradius 32.0343
rwrist -1.46953
rhand -4.2352 -54.5034
rfingers 7.12502
rthumb 21.5281 -83.3269
lclavicle -9.93923e-015 -2.94201e-014
lhumerus -31.4842 -0.139962 78.202
lradius 35.9565
lwrist 0.895435
lhand -22.3029 -11.14
lfingers 7.12502
lthumb 4.11628 18.7999
rfemur -30.4572 8.18635 18.1569
rtibia 17.3188
rfoot -22.5929 -5.85768
rtoes -14.186
lfemur -32.2269 -12.315 -21.3365
ltibia 16.5629
lfoot -7.02215 -4.40868
ltoes -13.813
326
root 3.59912 17.1668 8.53813 -152.88 -8.06601 176.95
lowerback -23.3425 -3.04601 -5.5656
upperback 0.533524 -2.66752 -0.282363
thorax 14.0239 -1.68574 1.90995
lowerneck -1.4765 -1.01363 -0.795422
upperneck 17.1017 -2.74402 2.07317
head 5.42649 -1.67082 0.6007
rclavicle -8.05078e-015 -2.78299e-015
rhumerus -40.4342 -15.0327 -77.1343
rradius 32.23
rwrist -1.82822
rhand -4.33215 -55.5427
rfingers 7.12502
rthumb 21.435 -84.3769
lclavicle -8.05078e-015 -2.78299e-015
lhumerus -31.3364 -0.371683 78.5053
lradius 36.443
lwrist 0.84904
lhand -22.4149 -11.4168
lfingers 7.12502
lthumb 4.00809 18.5252
rfemur -30.384 8.00907 18.1313
rtibia 17.1395
rfoot -22.4945 -5.9153
rtoes -14.8626
lfemur -32.1122 -12.2049 -21.4316
ltibia 16.2281
lfoot -6.82263 -4.64684
ltoes -13.8047
